<mxfile host="app.diagrams.net" agent="Mozilla/5.0 (Windows NT 10.0; Win64; x64) AppleWebKit/537.36 (KHTML, like Gecko) Chrome/136.0.0.0 Safari/537.36" version="27.0.3">
  <diagram name="Page-1" id="lkGIEFiwqvALlkoN7rno">
    <mxGraphModel grid="1" page="1" gridSize="10" guides="1" tooltips="1" connect="1" arrows="1" fold="1" pageScale="1" pageWidth="827" pageHeight="1169" math="0" shadow="0">
      <root>
        <mxCell id="0" />
        <mxCell id="1" parent="0" />
        <mxCell id="vzezKHk0S-2UAbCH_sUW-1" value="" style="rounded=0;whiteSpace=wrap;html=1;" vertex="1" parent="1">
          <mxGeometry x="10" y="10" width="800" height="570" as="geometry" />
        </mxCell>
        <mxCell id="vzezKHk0S-2UAbCH_sUW-2" value="" style="rounded=0;whiteSpace=wrap;html=1;" vertex="1" parent="1">
          <mxGeometry x="10" y="590" width="800" height="570" as="geometry" />
        </mxCell>
        <mxCell id="vzezKHk0S-2UAbCH_sUW-4" value="" style="shape=mxgraph.signs.safety.no;html=1;pointerEvents=1;fillColor=#000000;strokeColor=none;verticalLabelPosition=bottom;verticalAlign=top;align=center;shadow=0;" vertex="1" parent="1">
          <mxGeometry x="223" y="429" width="380" height="310" as="geometry" />
        </mxCell>
        <mxCell id="vzezKHk0S-2UAbCH_sUW-6" value="&lt;h1&gt;TITLE&lt;/h1&gt;" style="rounded=0;whiteSpace=wrap;html=1;" vertex="1" parent="1">
          <mxGeometry x="30" y="40" width="750" height="130" as="geometry" />
        </mxCell>
        <mxCell id="vzezKHk0S-2UAbCH_sUW-7" value="" style="shape=offPageConnector;whiteSpace=wrap;html=1;size=0.25925925925925924;rounded=1;" vertex="1" parent="1">
          <mxGeometry x="30" y="190" width="380" height="270" as="geometry" />
        </mxCell>
        <mxCell id="vzezKHk0S-2UAbCH_sUW-8" value="" style="shape=offPageConnector;whiteSpace=wrap;html=1;size=0.25925925925925924;" vertex="1" parent="1">
          <mxGeometry x="414" y="190" width="366" height="270" as="geometry" />
        </mxCell>
        <mxCell id="vzezKHk0S-2UAbCH_sUW-11" value="" style="strokeWidth=2;html=1;shape=mxgraph.flowchart.extract_or_measurement;whiteSpace=wrap;direction=north;" vertex="1" parent="1">
          <mxGeometry x="603" y="410" width="190" height="160" as="geometry" />
        </mxCell>
        <mxCell id="vzezKHk0S-2UAbCH_sUW-12" value="" style="strokeWidth=2;html=1;shape=mxgraph.flowchart.merge_or_storage;whiteSpace=wrap;direction=north;" vertex="1" parent="1">
          <mxGeometry x="30" y="410" width="180" height="160" as="geometry" />
        </mxCell>
      </root>
    </mxGraphModel>
  </diagram>
</mxfile>
